<mxfile host="app.diagrams.net" modified="2022-07-28T14:52:06.540Z" agent="5.0 (Windows NT 10.0; Win64; x64) AppleWebKit/537.36 (KHTML, like Gecko) Chrome/103.0.0.0 Safari/537.36" etag="kofACuoVIEfhL04vVdvC" version="20.2.2" type="github">
  <diagram id="C5RBs43oDa-KdzZeNtuy" name="Page-1">
    <mxGraphModel dx="1422" dy="794" grid="1" gridSize="10" guides="1" tooltips="1" connect="1" arrows="1" fold="1" page="1" pageScale="1" pageWidth="827" pageHeight="1169" math="0" shadow="0">
      <root>
        <mxCell id="WIyWlLk6GJQsqaUBKTNV-0" />
        <mxCell id="WIyWlLk6GJQsqaUBKTNV-1" parent="WIyWlLk6GJQsqaUBKTNV-0" />
        <mxCell id="WIyWlLk6GJQsqaUBKTNV-2" value="" style="rounded=0;html=1;jettySize=auto;orthogonalLoop=1;fontSize=14;endArrow=block;endFill=0;endSize=8;strokeWidth=1;shadow=0;labelBackgroundColor=none;edgeStyle=orthogonalEdgeStyle;entryX=1;entryY=0.5;entryDx=0;entryDy=0;" parent="WIyWlLk6GJQsqaUBKTNV-1" source="WIyWlLk6GJQsqaUBKTNV-3" target="t9vkWHPVqPOiWpAbHAEq-0" edge="1">
          <mxGeometry relative="1" as="geometry" />
        </mxCell>
        <mxCell id="WIyWlLk6GJQsqaUBKTNV-3" value="(رئيس القسم)&lt;br style=&quot;font-size: 14px;&quot;&gt;طلب وظيفة جديدة" style="rounded=1;whiteSpace=wrap;html=1;fontSize=14;glass=0;strokeWidth=1;shadow=0;" parent="WIyWlLk6GJQsqaUBKTNV-1" vertex="1">
          <mxGeometry x="435" y="200" width="120" height="40" as="geometry" />
        </mxCell>
        <mxCell id="t9vkWHPVqPOiWpAbHAEq-10" style="edgeStyle=orthogonalEdgeStyle;rounded=0;orthogonalLoop=1;jettySize=auto;html=1;entryX=0;entryY=0.5;entryDx=0;entryDy=0;fontSize=14;" edge="1" parent="WIyWlLk6GJQsqaUBKTNV-1" source="WIyWlLk6GJQsqaUBKTNV-7" target="t9vkWHPVqPOiWpAbHAEq-9">
          <mxGeometry relative="1" as="geometry">
            <Array as="points">
              <mxPoint x="120" y="130" />
              <mxPoint x="245" y="130" />
            </Array>
          </mxGeometry>
        </mxCell>
        <mxCell id="WIyWlLk6GJQsqaUBKTNV-7" value="(الموارد البشرية)&lt;br style=&quot;font-size: 14px;&quot;&gt;إنشاء وظيفة جديدة بناء على طلب رئيس القسم" style="rounded=1;whiteSpace=wrap;html=1;fontSize=14;glass=0;strokeWidth=1;shadow=0;" parent="WIyWlLk6GJQsqaUBKTNV-1" vertex="1">
          <mxGeometry x="60" y="190" width="120" height="60" as="geometry" />
        </mxCell>
        <mxCell id="t9vkWHPVqPOiWpAbHAEq-35" style="edgeStyle=orthogonalEdgeStyle;rounded=0;orthogonalLoop=1;jettySize=auto;html=1;entryX=0.5;entryY=0;entryDx=0;entryDy=0;fontSize=14;" edge="1" parent="WIyWlLk6GJQsqaUBKTNV-1" source="WIyWlLk6GJQsqaUBKTNV-12" target="t9vkWHPVqPOiWpAbHAEq-31">
          <mxGeometry relative="1" as="geometry" />
        </mxCell>
        <mxCell id="t9vkWHPVqPOiWpAbHAEq-57" style="edgeStyle=orthogonalEdgeStyle;rounded=0;orthogonalLoop=1;jettySize=auto;html=1;entryX=0;entryY=0.5;entryDx=0;entryDy=0;fontSize=14;" edge="1" parent="WIyWlLk6GJQsqaUBKTNV-1" source="WIyWlLk6GJQsqaUBKTNV-12" target="t9vkWHPVqPOiWpAbHAEq-28">
          <mxGeometry relative="1" as="geometry">
            <Array as="points">
              <mxPoint x="300" y="500" />
            </Array>
          </mxGeometry>
        </mxCell>
        <mxCell id="WIyWlLk6GJQsqaUBKTNV-12" value="إنشاء طلب وظيفة" style="rounded=1;whiteSpace=wrap;html=1;fontSize=14;glass=0;strokeWidth=1;shadow=0;" parent="WIyWlLk6GJQsqaUBKTNV-1" vertex="1">
          <mxGeometry x="245" y="600" width="120" height="40" as="geometry" />
        </mxCell>
        <mxCell id="t9vkWHPVqPOiWpAbHAEq-1" style="edgeStyle=orthogonalEdgeStyle;rounded=0;orthogonalLoop=1;jettySize=auto;html=1;exitX=0;exitY=0.5;exitDx=0;exitDy=0;entryX=1;entryY=0.5;entryDx=0;entryDy=0;fontSize=14;" edge="1" parent="WIyWlLk6GJQsqaUBKTNV-1" source="t9vkWHPVqPOiWpAbHAEq-0" target="WIyWlLk6GJQsqaUBKTNV-7">
          <mxGeometry relative="1" as="geometry" />
        </mxCell>
        <mxCell id="t9vkWHPVqPOiWpAbHAEq-0" value="إرسال بريد إلكتروني إالى الموارد البشرية" style="rounded=1;whiteSpace=wrap;html=1;fontSize=14;" vertex="1" parent="WIyWlLk6GJQsqaUBKTNV-1">
          <mxGeometry x="245" y="200" width="120" height="40" as="geometry" />
        </mxCell>
        <mxCell id="t9vkWHPVqPOiWpAbHAEq-8" style="edgeStyle=orthogonalEdgeStyle;rounded=0;orthogonalLoop=1;jettySize=auto;html=1;entryX=1;entryY=0.5;entryDx=0;entryDy=0;fontSize=14;" edge="1" parent="WIyWlLk6GJQsqaUBKTNV-1" source="t9vkWHPVqPOiWpAbHAEq-7" target="WIyWlLk6GJQsqaUBKTNV-3">
          <mxGeometry relative="1" as="geometry" />
        </mxCell>
        <mxCell id="t9vkWHPVqPOiWpAbHAEq-7" value="البداية" style="ellipse;whiteSpace=wrap;html=1;fontSize=14;" vertex="1" parent="WIyWlLk6GJQsqaUBKTNV-1">
          <mxGeometry x="730" y="180" width="90" height="80" as="geometry" />
        </mxCell>
        <mxCell id="t9vkWHPVqPOiWpAbHAEq-64" style="edgeStyle=orthogonalEdgeStyle;rounded=0;orthogonalLoop=1;jettySize=auto;html=1;entryX=0;entryY=0.5;entryDx=0;entryDy=0;fontSize=14;" edge="1" parent="WIyWlLk6GJQsqaUBKTNV-1" source="t9vkWHPVqPOiWpAbHAEq-9" target="t9vkWHPVqPOiWpAbHAEq-63">
          <mxGeometry relative="1" as="geometry" />
        </mxCell>
        <mxCell id="t9vkWHPVqPOiWpAbHAEq-9" value="إرسال بريد إلكتروني إالى رئيس القسم والأشخاص الذين تم تحديدهم في عنوان الوظيفة" style="rounded=1;whiteSpace=wrap;html=1;fontSize=14;" vertex="1" parent="WIyWlLk6GJQsqaUBKTNV-1">
          <mxGeometry x="245" y="90" width="120" height="70" as="geometry" />
        </mxCell>
        <mxCell id="t9vkWHPVqPOiWpAbHAEq-17" style="edgeStyle=orthogonalEdgeStyle;rounded=0;orthogonalLoop=1;jettySize=auto;html=1;entryX=1;entryY=0.5;entryDx=0;entryDy=0;fontSize=14;" edge="1" parent="WIyWlLk6GJQsqaUBKTNV-1" target="t9vkWHPVqPOiWpAbHAEq-15">
          <mxGeometry relative="1" as="geometry">
            <mxPoint x="730" y="620" as="sourcePoint" />
          </mxGeometry>
        </mxCell>
        <mxCell id="t9vkWHPVqPOiWpAbHAEq-14" value="البداية" style="ellipse;whiteSpace=wrap;html=1;fontSize=14;" vertex="1" parent="WIyWlLk6GJQsqaUBKTNV-1">
          <mxGeometry x="730" y="580" width="90" height="80" as="geometry" />
        </mxCell>
        <mxCell id="t9vkWHPVqPOiWpAbHAEq-19" style="edgeStyle=orthogonalEdgeStyle;rounded=0;orthogonalLoop=1;jettySize=auto;html=1;entryX=1;entryY=0.5;entryDx=0;entryDy=0;fontSize=14;" edge="1" parent="WIyWlLk6GJQsqaUBKTNV-1" target="t9vkWHPVqPOiWpAbHAEq-18">
          <mxGeometry relative="1" as="geometry">
            <mxPoint x="590" y="610" as="sourcePoint" />
            <Array as="points">
              <mxPoint x="590" y="620" />
            </Array>
          </mxGeometry>
        </mxCell>
        <mxCell id="t9vkWHPVqPOiWpAbHAEq-15" value="(المتقدم)&lt;br style=&quot;font-size: 14px;&quot;&gt;التقدم للوظيفة" style="rounded=1;whiteSpace=wrap;html=1;fontSize=14;glass=0;strokeWidth=1;shadow=0;" vertex="1" parent="WIyWlLk6GJQsqaUBKTNV-1">
          <mxGeometry x="580" y="600" width="130" height="40" as="geometry" />
        </mxCell>
        <mxCell id="t9vkWHPVqPOiWpAbHAEq-26" value="نعم" style="edgeStyle=orthogonalEdgeStyle;rounded=0;orthogonalLoop=1;jettySize=auto;html=1;entryX=0.5;entryY=0;entryDx=0;entryDy=0;fontSize=14;" edge="1" parent="WIyWlLk6GJQsqaUBKTNV-1" source="t9vkWHPVqPOiWpAbHAEq-18" target="t9vkWHPVqPOiWpAbHAEq-21">
          <mxGeometry relative="1" as="geometry" />
        </mxCell>
        <mxCell id="t9vkWHPVqPOiWpAbHAEq-27" value="لا" style="edgeStyle=orthogonalEdgeStyle;rounded=0;orthogonalLoop=1;jettySize=auto;html=1;entryX=1;entryY=0.5;entryDx=0;entryDy=0;fontSize=14;" edge="1" parent="WIyWlLk6GJQsqaUBKTNV-1" source="t9vkWHPVqPOiWpAbHAEq-18" target="WIyWlLk6GJQsqaUBKTNV-12">
          <mxGeometry relative="1" as="geometry" />
        </mxCell>
        <mxCell id="t9vkWHPVqPOiWpAbHAEq-18" value="القائمة السوداء؟&lt;br style=&quot;font-size: 14px;&quot;&gt;" style="rhombus;whiteSpace=wrap;html=1;shadow=0;fontFamily=Helvetica;fontSize=14;align=center;strokeWidth=1;spacing=6;spacingTop=-4;" vertex="1" parent="WIyWlLk6GJQsqaUBKTNV-1">
          <mxGeometry x="445" y="580" width="100" height="80" as="geometry" />
        </mxCell>
        <mxCell id="t9vkWHPVqPOiWpAbHAEq-21" value="إهمال الطلب" style="rounded=1;whiteSpace=wrap;html=1;fontSize=14;glass=0;strokeWidth=1;shadow=0;" vertex="1" parent="WIyWlLk6GJQsqaUBKTNV-1">
          <mxGeometry x="435" y="700" width="120" height="40" as="geometry" />
        </mxCell>
        <mxCell id="t9vkWHPVqPOiWpAbHAEq-28" value="إرسال بريد إلكتروني للمتقدم&lt;br style=&quot;font-size: 14px;&quot;&gt;لتأكيد إستلام الطلب" style="rounded=1;whiteSpace=wrap;html=1;fontSize=14;glass=0;strokeWidth=1;shadow=0;" vertex="1" parent="WIyWlLk6GJQsqaUBKTNV-1">
          <mxGeometry x="435" y="470" width="120" height="50" as="geometry" />
        </mxCell>
        <mxCell id="t9vkWHPVqPOiWpAbHAEq-33" value="رفض" style="edgeStyle=orthogonalEdgeStyle;rounded=0;orthogonalLoop=1;jettySize=auto;html=1;entryX=0;entryY=0.5;entryDx=0;entryDy=0;fontSize=14;" edge="1" parent="WIyWlLk6GJQsqaUBKTNV-1" source="t9vkWHPVqPOiWpAbHAEq-31" target="t9vkWHPVqPOiWpAbHAEq-21">
          <mxGeometry relative="1" as="geometry" />
        </mxCell>
        <mxCell id="t9vkWHPVqPOiWpAbHAEq-39" value="قبول" style="edgeStyle=orthogonalEdgeStyle;rounded=0;orthogonalLoop=1;jettySize=auto;html=1;fontSize=14;" edge="1" parent="WIyWlLk6GJQsqaUBKTNV-1" source="t9vkWHPVqPOiWpAbHAEq-31" target="t9vkWHPVqPOiWpAbHAEq-38">
          <mxGeometry relative="1" as="geometry" />
        </mxCell>
        <mxCell id="t9vkWHPVqPOiWpAbHAEq-31" value="(الموارد البشرية)&lt;br style=&quot;font-size: 14px;&quot;&gt;مراجعة الموارد البشرية" style="rhombus;whiteSpace=wrap;html=1;shadow=0;fontFamily=Helvetica;fontSize=14;align=center;strokeWidth=1;spacing=6;spacingTop=-4;" vertex="1" parent="WIyWlLk6GJQsqaUBKTNV-1">
          <mxGeometry x="250" y="670" width="110" height="100" as="geometry" />
        </mxCell>
        <mxCell id="t9vkWHPVqPOiWpAbHAEq-36" value="رفض" style="edgeStyle=orthogonalEdgeStyle;rounded=0;orthogonalLoop=1;jettySize=auto;html=1;entryX=0.5;entryY=1;entryDx=0;entryDy=0;fontSize=14;" edge="1" parent="WIyWlLk6GJQsqaUBKTNV-1" target="t9vkWHPVqPOiWpAbHAEq-21">
          <mxGeometry relative="1" as="geometry">
            <mxPoint x="360" y="990" as="sourcePoint" />
            <Array as="points">
              <mxPoint x="360" y="980" />
              <mxPoint x="495" y="980" />
            </Array>
          </mxGeometry>
        </mxCell>
        <mxCell id="t9vkWHPVqPOiWpAbHAEq-46" value="قبول" style="edgeStyle=orthogonalEdgeStyle;rounded=0;orthogonalLoop=1;jettySize=auto;html=1;entryX=1;entryY=0.5;entryDx=0;entryDy=0;fontSize=14;" edge="1" parent="WIyWlLk6GJQsqaUBKTNV-1" source="t9vkWHPVqPOiWpAbHAEq-32" target="t9vkWHPVqPOiWpAbHAEq-44">
          <mxGeometry relative="1" as="geometry" />
        </mxCell>
        <mxCell id="t9vkWHPVqPOiWpAbHAEq-32" value="(رئيس القسم)&lt;br style=&quot;font-size: 14px;&quot;&gt;مراجعة رئيس القسم" style="rhombus;whiteSpace=wrap;html=1;shadow=0;fontFamily=Helvetica;fontSize=14;align=center;strokeWidth=1;spacing=6;spacingTop=-4;" vertex="1" parent="WIyWlLk6GJQsqaUBKTNV-1">
          <mxGeometry x="250" y="930" width="110" height="100" as="geometry" />
        </mxCell>
        <mxCell id="t9vkWHPVqPOiWpAbHAEq-40" style="edgeStyle=orthogonalEdgeStyle;rounded=0;orthogonalLoop=1;jettySize=auto;html=1;entryX=0.5;entryY=0;entryDx=0;entryDy=0;fontSize=14;" edge="1" parent="WIyWlLk6GJQsqaUBKTNV-1" source="t9vkWHPVqPOiWpAbHAEq-38">
          <mxGeometry relative="1" as="geometry">
            <mxPoint x="305" y="940" as="targetPoint" />
          </mxGeometry>
        </mxCell>
        <mxCell id="t9vkWHPVqPOiWpAbHAEq-38" value="إرسال بريد إالكتروني لرئيس القسم" style="rounded=1;whiteSpace=wrap;html=1;fontSize=14;glass=0;strokeWidth=1;shadow=0;" vertex="1" parent="WIyWlLk6GJQsqaUBKTNV-1">
          <mxGeometry x="245" y="810" width="120" height="70" as="geometry" />
        </mxCell>
        <mxCell id="t9vkWHPVqPOiWpAbHAEq-47" value="رفض موعد المقابلة" style="edgeStyle=orthogonalEdgeStyle;rounded=0;orthogonalLoop=1;jettySize=auto;html=1;entryX=0.5;entryY=1;entryDx=0;entryDy=0;fontSize=14;" edge="1" parent="WIyWlLk6GJQsqaUBKTNV-1" source="t9vkWHPVqPOiWpAbHAEq-44" target="t9vkWHPVqPOiWpAbHAEq-32">
          <mxGeometry relative="1" as="geometry">
            <Array as="points">
              <mxPoint x="125" y="1060" />
              <mxPoint x="305" y="1060" />
            </Array>
          </mxGeometry>
        </mxCell>
        <mxCell id="t9vkWHPVqPOiWpAbHAEq-49" value="قبول موعد المقابلة" style="edgeStyle=orthogonalEdgeStyle;rounded=0;orthogonalLoop=1;jettySize=auto;html=1;fontSize=14;" edge="1" parent="WIyWlLk6GJQsqaUBKTNV-1" source="t9vkWHPVqPOiWpAbHAEq-44" target="t9vkWHPVqPOiWpAbHAEq-48">
          <mxGeometry relative="1" as="geometry" />
        </mxCell>
        <mxCell id="t9vkWHPVqPOiWpAbHAEq-44" value="إرسال بريد إالكتروني للموارد البشرية لتأكد من موعد المقابلة" style="rhombus;whiteSpace=wrap;html=1;shadow=0;fontFamily=Helvetica;fontSize=14;align=center;strokeWidth=1;spacing=6;spacingTop=-4;" vertex="1" parent="WIyWlLk6GJQsqaUBKTNV-1">
          <mxGeometry x="40" y="910" width="160" height="130" as="geometry" />
        </mxCell>
        <mxCell id="t9vkWHPVqPOiWpAbHAEq-51" style="edgeStyle=orthogonalEdgeStyle;rounded=0;orthogonalLoop=1;jettySize=auto;html=1;entryX=0.5;entryY=1;entryDx=0;entryDy=0;fontSize=14;" edge="1" parent="WIyWlLk6GJQsqaUBKTNV-1" source="t9vkWHPVqPOiWpAbHAEq-48" target="t9vkWHPVqPOiWpAbHAEq-50">
          <mxGeometry relative="1" as="geometry" />
        </mxCell>
        <mxCell id="t9vkWHPVqPOiWpAbHAEq-48" value="إرسال بريد إالكتروني لرئيس القسم والموارد البشرية والمتقدم لتأكيد موعد المقابلة" style="rounded=1;whiteSpace=wrap;html=1;fontSize=14;glass=0;strokeWidth=1;shadow=0;" vertex="1" parent="WIyWlLk6GJQsqaUBKTNV-1">
          <mxGeometry x="60" y="810" width="120" height="70" as="geometry" />
        </mxCell>
        <mxCell id="t9vkWHPVqPOiWpAbHAEq-53" style="edgeStyle=orthogonalEdgeStyle;rounded=0;orthogonalLoop=1;jettySize=auto;html=1;entryX=0.5;entryY=1;entryDx=0;entryDy=0;fontSize=14;" edge="1" parent="WIyWlLk6GJQsqaUBKTNV-1" source="t9vkWHPVqPOiWpAbHAEq-50" target="t9vkWHPVqPOiWpAbHAEq-52">
          <mxGeometry relative="1" as="geometry" />
        </mxCell>
        <mxCell id="t9vkWHPVqPOiWpAbHAEq-50" value="إنشاء مقابلة" style="rounded=1;whiteSpace=wrap;html=1;fontSize=14;glass=0;strokeWidth=1;shadow=0;" vertex="1" parent="WIyWlLk6GJQsqaUBKTNV-1">
          <mxGeometry x="60" y="700" width="120" height="40" as="geometry" />
        </mxCell>
        <mxCell id="t9vkWHPVqPOiWpAbHAEq-58" value="نعم" style="edgeStyle=orthogonalEdgeStyle;rounded=0;orthogonalLoop=1;jettySize=auto;html=1;entryX=0.5;entryY=1;entryDx=0;entryDy=0;fontSize=14;" edge="1" parent="WIyWlLk6GJQsqaUBKTNV-1" source="t9vkWHPVqPOiWpAbHAEq-52" target="t9vkWHPVqPOiWpAbHAEq-56">
          <mxGeometry relative="1" as="geometry" />
        </mxCell>
        <mxCell id="t9vkWHPVqPOiWpAbHAEq-52" value="التوصية بالتعيين" style="rhombus;whiteSpace=wrap;html=1;shadow=0;fontFamily=Helvetica;fontSize=14;align=center;strokeWidth=1;spacing=6;spacingTop=-4;" vertex="1" parent="WIyWlLk6GJQsqaUBKTNV-1">
          <mxGeometry x="70" y="580" width="100" height="80" as="geometry" />
        </mxCell>
        <mxCell id="t9vkWHPVqPOiWpAbHAEq-62" style="edgeStyle=orthogonalEdgeStyle;rounded=0;orthogonalLoop=1;jettySize=auto;html=1;entryX=0.5;entryY=1;entryDx=0;entryDy=0;fontSize=14;" edge="1" parent="WIyWlLk6GJQsqaUBKTNV-1" source="t9vkWHPVqPOiWpAbHAEq-56" target="t9vkWHPVqPOiWpAbHAEq-61">
          <mxGeometry relative="1" as="geometry" />
        </mxCell>
        <mxCell id="t9vkWHPVqPOiWpAbHAEq-56" value="تعيين" style="rounded=1;whiteSpace=wrap;html=1;fontSize=14;glass=0;strokeWidth=1;shadow=0;" vertex="1" parent="WIyWlLk6GJQsqaUBKTNV-1">
          <mxGeometry x="60" y="490" width="120" height="40" as="geometry" />
        </mxCell>
        <mxCell id="t9vkWHPVqPOiWpAbHAEq-59" value="الوظائف" style="text;html=1;strokeColor=none;fillColor=none;align=center;verticalAlign=middle;whiteSpace=wrap;rounded=0;fontSize=38;" vertex="1" parent="WIyWlLk6GJQsqaUBKTNV-1">
          <mxGeometry x="240" y="20" width="340" height="50" as="geometry" />
        </mxCell>
        <mxCell id="t9vkWHPVqPOiWpAbHAEq-60" value="طلبات التوظيف" style="text;html=1;strokeColor=none;fillColor=none;align=center;verticalAlign=middle;whiteSpace=wrap;rounded=0;fontSize=33;" vertex="1" parent="WIyWlLk6GJQsqaUBKTNV-1">
          <mxGeometry x="240" y="320" width="340" height="50" as="geometry" />
        </mxCell>
        <mxCell id="t9vkWHPVqPOiWpAbHAEq-61" value="النهاية" style="ellipse;whiteSpace=wrap;html=1;fontSize=14;" vertex="1" parent="WIyWlLk6GJQsqaUBKTNV-1">
          <mxGeometry x="75" y="370" width="90" height="80" as="geometry" />
        </mxCell>
        <mxCell id="t9vkWHPVqPOiWpAbHAEq-63" value="النهاية" style="ellipse;whiteSpace=wrap;html=1;fontSize=14;" vertex="1" parent="WIyWlLk6GJQsqaUBKTNV-1">
          <mxGeometry x="445" y="85" width="90" height="80" as="geometry" />
        </mxCell>
      </root>
    </mxGraphModel>
  </diagram>
</mxfile>
